<?xml version="1.0" standalone="no"?>
<svg xmlns="http://www.w3.org/2000/svg" viewBox="0 0 200.719 36" width="200.719" height="36"><g fill="#181919" color="#181919" transform="translate(172.719, 3.9999999999999982) scale(0.2800001)"><svg width="100.0" height="100.0" x="0.0" y="0.0" viewBox="0 0 100 100"><path d="M18.325,51.321c-0.037-0.28-0.083-0.559-0.112-0.841C18.247,50.762,18.283,51.043,18.325,51.321z"></path><path d="M30.995,67.402c-2.888-9.806-7.743-16.062-14.944-19.147c0.026,0.69,0.075,1.375,0.142,2.054  c0.006,0.057,0.014,0.114,0.02,0.171c0.029,0.283,0.075,0.561,0.112,0.841c1.31,10.004,7.071,18.6,15.266,23.7  c0.065-0.356,0.111-0.727,0.146-1.103C31.92,72.003,31.713,69.84,30.995,67.402z"></path><path d="M85.805,48.255c-7.201,3.086-12.057,9.342-14.944,19.147c-0.707,2.4-0.917,4.535-0.749,6.429  c0.036,0.407,0.084,0.807,0.154,1.19c7.158-4.455,12.459-11.579,14.562-19.977C85.374,52.858,85.717,50.59,85.805,48.255z"></path><path d="M84,47c0-14.892-9.866-27.475-23.417-31.582c-1.938,3.516-4.745,6.485-8.147,8.603c-0.283-1.545-0.188-3.342,0.422-5.415  c0.474-1.608,1.025-3.077,1.652-4.419C53.355,14.065,52.186,14,51,14c-1.186,0-2.356,0.065-3.51,0.188  c0.626,1.343,1.178,2.811,1.652,4.419c0.609,2.072,0.706,3.869,0.423,5.415c-3.402-2.118-6.208-5.087-8.147-8.604  C27.866,19.524,18,32.108,18,47c0,1.132,0.071,2.232,0.193,3.309c-0.067-0.679-0.116-1.364-0.142-2.054  c7.202,3.086,12.056,9.342,14.944,19.147c0.718,2.438,0.925,4.601,0.742,6.517c2.25,1.629,4.635,3.118,7.084,4.474  C47.934,82.329,51,92.5,51,92.5s3.769-10.406,10.017-14.053c2.44-1.424,4.831-2.958,7.095-4.616  c-0.168-1.894,0.042-4.028,0.749-6.429c2.888-9.806,7.743-16.062,14.944-19.147c-0.088,2.335-0.431,4.604-0.978,6.79  C83.582,52.542,84,49.869,84,47z M63,53c-5.952,0-10.958-3.851-12.5-9.099C48.958,49.149,43.952,53,38,53c-7.18,0-13-5.597-13-12.5  S30.82,28,38,28c5.952,0,10.958,3.851,12.5,9.099C52.042,31.851,57.048,28,63,28c7.18,0,13,5.597,13,12.5S70.18,53,63,53z"></path><path d="M52.436,22.021c3.402-2.118,6.209-5.087,8.147-8.603C62.298,10.308,63.336,6.771,63.479,3  c-3.936,1.687-6.883,4.712-8.969,9.188c-0.627,1.343-1.179,2.811-1.652,4.419C52.248,18.679,52.152,20.476,52.436,22.021z"></path><path d="M49.565,22.021c0.283-1.545,0.187-3.342-0.423-5.415c-0.474-1.608-1.026-3.077-1.652-4.419  C45.404,7.712,42.458,4.687,38.522,3c0.142,3.771,1.18,7.308,2.896,10.418C43.356,16.934,46.163,19.904,49.565,22.021z"></path><ellipse stroke="currentColor" stroke-width="0.5" stroke-miterlimit="10" cx="57" cy="71.333" rx="1" ry="1.667" fill="currentColor"></ellipse><ellipse stroke="currentColor" stroke-width="0.5" stroke-miterlimit="10" cx="59" cy="71.333" rx="1" ry="1.667" fill="currentColor"></ellipse><ellipse stroke="currentColor" stroke-width="0.5" stroke-miterlimit="10" cx="55" cy="71.333" rx="1" ry="1.667" fill="currentColor"></ellipse><ellipse stroke="currentColor" stroke-width="0.5" stroke-miterlimit="10" cx="45" cy="71.333" rx="1" ry="1.667" fill="currentColor"></ellipse><ellipse stroke="currentColor" stroke-width="0.5" stroke-miterlimit="10" cx="47" cy="71.333" rx="1" ry="1.667" fill="currentColor"></ellipse><ellipse stroke="currentColor" stroke-width="0.5" stroke-miterlimit="10" cx="43" cy="71.333" rx="1" ry="1.667" fill="currentColor"></ellipse><path stroke="currentColor" stroke-miterlimit="10" d="M49,48.5c0,2.442,0.74,4.715,2,6.641c1.26-1.926,2-4.198,2-6.641  s-0.74-4.715-2-6.641C49.74,43.785,49,46.058,49,48.5z" fill="currentColor"></path><path d="M63.581,30.163c-5.201,0-9.418,4.217-9.418,9.419c0,5.201,4.217,9.418,9.418,9.418C68.783,49,73,44.783,73,39.582  C73,34.379,68.783,30.163,63.581,30.163z M63.582,46c-3.348,0-6.061-2.132-6.061-4.762c0-0.296,0.039-0.585,0.104-0.865  c0.52,2.215,2.986,3.896,5.957,3.896s5.436-1.681,5.955-3.896c0.066,0.28,0.105,0.569,0.105,0.865C69.643,43.868,66.93,46,63.582,46  z"></path><path d="M37.418,30.163c-5.202,0-9.418,4.217-9.418,9.419C28,44.783,32.217,49,37.418,49c5.202,0,9.419-4.217,9.419-9.418  C46.837,34.379,42.621,30.163,37.418,30.163z M37.582,46c-3.348,0-6.061-2.132-6.061-4.762c0-0.296,0.039-0.585,0.104-0.865  c0.52,2.215,2.986,3.896,5.957,3.896s5.436-1.681,5.955-3.896c0.066,0.28,0.105,0.569,0.105,0.865C43.643,43.868,40.93,46,37.582,46  z"></path></svg></g><path fill="#BB2020" fill-rule="nonzero" d="M0 16.14L0 16.14Q0 15.49 0.08 14.95Q0.15 14.40 0.30 13.77L0.30 13.77L2.66 13.77L2.66 14.74Q2.66 15.55 2.76 16.17Q2.86 16.79 3.09 17.22Q3.32 17.65 3.70 17.87Q4.08 18.08 4.63 18.08L4.63 18.08Q5.50 18.08 5.95 17.61Q6.41 17.13 6.41 16.22L6.41 16.22Q6.41 15.75 6.35 15.36Q6.28 14.96 6.12 14.58Q5.96 14.19 5.70 13.76Q5.43 13.34 5.00 12.81L5.00 12.81L1.84 9.05Q1.00 7.97 0.54 6.87Q0.08 5.78 0.08 4.54L0.08 4.54Q0.08 3.54 0.39 2.71Q0.70 1.88 1.29 1.27Q1.88 0.67 2.74 0.33Q3.60 0 4.69 0L4.69 0Q6.01 0 6.90 0.38Q7.78 0.75 8.31 1.36Q8.84 1.97 9.05 2.72Q9.27 3.48 9.27 4.24L9.27 4.24Q9.27 4.89 9.17 5.43Q9.07 5.98 8.94 6.63L8.94 6.63L6.60 6.63L6.60 5.68Q6.60 4.09 6.14 3.24Q5.68 2.39 4.65 2.39L4.65 2.39Q3.80 2.39 3.38 2.87Q2.95 3.34 2.95 4.14L2.95 4.14Q2.95 4.56 3.02 4.90Q3.08 5.24 3.21 5.53Q3.33 5.81 3.50 6.08Q3.68 6.35 3.90 6.64L3.90 6.64L7.43 10.91Q8.39 12.16 8.91 13.32Q9.42 14.47 9.42 15.76L9.42 15.76Q9.42 16.83 9.09 17.68Q8.75 18.54 8.13 19.14Q7.51 19.73 6.63 20.06Q5.75 20.38 4.65 20.38L4.65 20.38Q3.29 20.38 2.40 20.02Q1.50 19.65 0.97 19.05Q0.43 18.46 0.22 17.70Q0 16.93 0 16.14ZM17.11 20.19L17.11 0.18L20.14 0.18L20.14 20.19L17.11 20.19ZM28.70 20.19L28.70 0.18L31.73 0.18L31.73 17.80L35.87 17.80L35.87 20.19L28.70 20.19ZM45.07 20.19L41.44 0.18L44.54 0.18L46.75 16.03L46.88 16.03L49.09 0.18L52.18 0.18L48.54 20.19L45.07 20.19ZM59.25 20.19L59.25 0.18L66.67 0.18L66.67 2.57L62.29 2.57L62.29 8.55L65.67 8.55L65.67 10.95L62.29 10.95L62.29 17.80L66.79 17.80L66.79 20.19L59.25 20.19ZM74.11 20.19L74.11 0.18L77.40 0.18Q77.96 0.18 78.64 0.22Q79.31 0.27 79.99 0.45Q80.66 0.63 81.29 1.00Q81.91 1.36 82.40 1.99Q82.89 2.63 83.18 3.58Q83.47 4.54 83.47 5.89L83.47 5.89L83.47 6.40Q83.47 8.68 82.82 10.12Q82.16 11.55 80.88 12.19L80.88 12.19L84.09 20.19L80.88 20.19L78.22 12.70L77.09 12.70L77.09 20.19L74.11 20.19ZM77.09 10.51L77.54 10.51Q78.34 10.51 78.89 10.34Q79.44 10.16 79.78 9.74Q80.12 9.33 80.27 8.64Q80.43 7.96 80.43 6.95L80.43 6.95L80.43 5.37Q80.43 4.59 80.29 4.03Q80.14 3.47 79.81 3.11Q79.48 2.74 78.93 2.57Q78.38 2.39 77.54 2.39L77.54 2.39L77.09 2.39L77.09 10.51ZM91.52 20.19L91.52 0.18L94.59 0.18Q95.27 0.18 96 0.22Q96.73 0.27 97.42 0.42Q98.11 0.57 98.73 0.87Q99.35 1.17 99.81 1.68Q100.28 2.18 100.55 2.92Q100.83 3.67 100.83 4.71L100.83 4.71L100.83 5.68Q100.83 6.48 100.60 7.15Q100.37 7.82 100.00 8.33Q99.62 8.84 99.14 9.17Q98.66 9.50 98.16 9.62L98.16 9.62L98.16 9.71Q99.64 9.98 100.40 11.13Q101.16 12.27 101.16 14.05L101.16 14.05L101.16 15.07Q101.16 16.16 100.92 16.96Q100.68 17.77 100.24 18.33Q99.81 18.90 99.21 19.27Q98.61 19.63 97.90 19.83Q97.18 20.04 96.38 20.12Q95.57 20.19 94.71 20.19L94.71 20.19L91.52 20.19ZM94.50 8.74L95.09 8.74Q95.70 8.74 96.20 8.60Q96.70 8.45 97.06 8.14Q97.42 7.83 97.61 7.33Q97.80 6.83 97.80 6.13L97.80 6.13L97.80 5.31Q97.80 4.61 97.66 4.07Q97.52 3.53 97.20 3.15Q96.88 2.78 96.36 2.58Q95.84 2.39 95.09 2.39L95.09 2.39L94.50 2.39L94.50 8.74ZM94.50 18.08L95.37 18.08Q95.98 18.08 96.47 17.92Q96.97 17.77 97.33 17.43Q97.69 17.10 97.88 16.58Q98.07 16.07 98.07 15.36L98.07 15.36L98.07 13.80Q98.07 13.10 97.93 12.56Q97.79 12.01 97.47 11.64Q97.15 11.27 96.63 11.08Q96.12 10.89 95.37 10.89L95.37 10.89L94.50 10.89L94.50 18.08ZM108.93 20.19L108.93 0.18L111.96 0.18L111.96 17.80L116.10 17.80L116.10 20.19L108.93 20.19ZM121.66 20.19L125.36 0.18L128.85 0.18L132.55 20.19L129.48 20.19L128.93 16.61L125.27 16.61L124.75 20.19L121.66 20.19ZM125.63 14.32L128.58 14.32L127.17 4.35L127.04 4.35L125.63 14.32ZM139.62 20.19L139.62 0.18L142.77 0.18Q143.48 0.18 144.25 0.22Q145.02 0.26 145.75 0.47Q146.48 0.68 147.13 1.12Q147.79 1.56 148.28 2.35Q148.77 3.14 149.06 4.34Q149.34 5.54 149.34 7.28L149.34 7.28L149.34 13.09Q149.34 14.82 149.06 16.03Q148.77 17.24 148.28 18.02Q147.79 18.81 147.13 19.25Q146.48 19.69 145.75 19.90Q145.02 20.11 144.25 20.15Q143.48 20.19 142.77 20.19L142.77 20.19L139.62 20.19ZM142.65 18.07L143.43 18.07Q144.25 18.07 144.78 17.86Q145.31 17.65 145.62 17.12Q145.93 16.58 146.05 15.66Q146.17 14.74 146.17 13.34L146.17 13.34L146.17 7.13Q146.17 5.72 146.05 4.80Q145.93 3.88 145.62 3.35Q145.31 2.81 144.78 2.60Q144.25 2.39 143.43 2.39L143.43 2.39L142.65 2.39L142.65 18.07ZM157.18 20.19L157.18 0.18L164.60 0.18L164.60 2.57L160.22 2.57L160.22 8.55L163.61 8.55L163.61 10.95L160.22 10.95L160.22 17.80L164.72 17.80L164.72 20.19L157.18 20.19Z" transform="translate(0, 7.811)"></path></svg>